<svg width="30" height="30" viewBox="0 0 30 30" fill="none" xmlns="http://www.w3.org/2000/svg">
<g id="albums">
<g id="Vector">
<path d="M21.5611 5.625H8.43607C8.18743 5.625 7.94897 5.52623 7.77316 5.35041C7.59734 5.1746 7.49857 4.93614 7.49857 4.6875C7.49857 4.43886 7.59734 4.2004 7.77316 4.02459C7.94897 3.84877 8.18743 3.75 8.43607 3.75H21.5611C21.8097 3.75 22.0482 3.84877 22.224 4.02459C22.3998 4.2004 22.4986 4.43886 22.4986 4.6875C22.4986 4.93614 22.3998 5.1746 22.224 5.35041C22.0482 5.52623 21.8097 5.625 21.5611 5.625Z" fill="#063F5C"/>
<path d="M23.436 8.43754H6.56102C6.31238 8.43754 6.07392 8.33877 5.8981 8.16295C5.72229 7.98714 5.62352 7.74868 5.62352 7.50004C5.62352 7.2514 5.72229 7.01294 5.8981 6.83713C6.07392 6.66131 6.31238 6.56254 6.56102 6.56254H23.436C23.6847 6.56254 23.9231 6.66131 24.0989 6.83713C24.2747 7.01294 24.3735 7.2514 24.3735 7.50004C24.3735 7.74868 24.2747 7.98714 24.0989 8.16295C23.9231 8.33877 23.6847 8.43754 23.436 8.43754Z" fill="#063F5C"/>
<path d="M24.5569 26.2501H5.44014C4.74309 26.2493 4.07482 25.9721 3.58194 25.4792C3.08905 24.9863 2.81181 24.318 2.81104 23.621V12.0042C2.81181 11.3071 3.08905 10.6389 3.58194 10.146C4.07482 9.65309 4.74309 9.37585 5.44014 9.37508H24.5569C25.254 9.37585 25.9223 9.65309 26.4151 10.146C26.908 10.6389 27.1853 11.3071 27.186 12.0042V23.621C27.1853 24.318 26.908 24.9863 26.4151 25.4792C25.9223 25.9721 25.254 26.2493 24.5569 26.2501Z" fill="#063F5C"/>
</g>
</g>
</svg>
