<svg width="31" height="29" viewBox="0 0 31 29" fill="none" xmlns="http://www.w3.org/2000/svg">
<g id="bookmark">
<path id="Vector" d="M23.5281 27.1877C23.2979 27.1884 23.0755 27.1078 22.9029 26.9612L15.0582 20.2442L7.21345 26.9612C7.0777 27.0774 6.90992 27.1533 6.73037 27.1797C6.55082 27.2061 6.36716 27.1819 6.20156 27.1101C6.03596 27.0382 5.8955 26.9218 5.79711 26.7747C5.69872 26.6277 5.64663 26.4564 5.6471 26.2815V5.43774C5.64819 4.47666 6.04515 3.55523 6.75088 2.87564C7.45661 2.19605 8.41347 1.81379 9.41152 1.81274H20.7048C21.7028 1.81379 22.6597 2.19605 23.3654 2.87564C24.0712 3.55523 24.4681 4.47666 24.4692 5.43774V26.2815C24.4692 26.5218 24.3701 26.7524 24.1936 26.9223C24.0171 27.0923 23.7777 27.1877 23.5281 27.1877Z" fill="#063F5C"/>
</g>
</svg>
