<svg width="18" height="18" viewBox="0 0 18 18" fill="none" xmlns="http://www.w3.org/2000/svg">
<g id="briefcase">
<path id="Vector" d="M17.4376 6.18811C17.4369 5.59157 17.1996 5.01966 16.7778 4.59784C16.356 4.17602 15.7841 3.93876 15.1876 3.93811H13.5001V3.37561C13.4996 2.9282 13.3217 2.49925 13.0053 2.18288C12.6889 1.86651 12.26 1.68858 11.8126 1.68811H6.18756C5.74015 1.68858 5.3112 1.86651 4.99483 2.18288C4.67847 2.49925 4.50053 2.9282 4.50006 3.37561V3.93811H2.81256C2.21602 3.93876 1.64411 4.17602 1.22229 4.59784C0.800474 5.01966 0.563212 5.59157 0.562561 6.18811V7.87561H17.4376V6.18811ZM12.3751 3.93811H5.62506V3.37561C5.62506 3.22643 5.68432 3.08335 5.78981 2.97786C5.8953 2.87237 6.03838 2.81311 6.18756 2.81311H11.8126C11.9617 2.81311 12.1048 2.87237 12.2103 2.97786C12.3158 3.08335 12.3751 3.22643 12.3751 3.37561V3.93811Z" fill="#F7AD1A" fill-opacity="0.75"/>
<path id="Vector_2" d="M11.8123 9.28174C11.8123 9.50551 11.7234 9.72013 11.5651 9.87836C11.4069 10.0366 11.1923 10.1255 10.9685 10.1255H7.03101C6.80723 10.1255 6.59262 10.0366 6.43438 9.87836C6.27615 9.72013 6.18726 9.50551 6.18726 9.28174V9.14111C6.18726 9.10382 6.17244 9.06805 6.14607 9.04168C6.1197 9.0153 6.08393 9.00049 6.04663 9.00049H0.562256V14.063C0.562256 14.6597 0.799309 15.232 1.22127 15.654C1.64322 16.0759 2.21552 16.313 2.81226 16.313H15.1873C15.784 16.313 16.3563 16.0759 16.7782 15.654C17.2002 15.232 17.4373 14.6597 17.4373 14.063V9.00049H11.9529C11.9156 9.00049 11.8798 9.0153 11.8534 9.04168C11.8271 9.06805 11.8123 9.10382 11.8123 9.14111V9.28174Z" fill="#F7AD1A" fill-opacity="0.75"/>
</g>
</svg>
