<svg width="38" height="40" viewBox="0 0 38 40" fill="none" xmlns="http://www.w3.org/2000/svg">
<g id="business">
<path id="Vector" d="M12.7905 32.5V37.5037" stroke="white" stroke-width="1.00189" stroke-linecap="round" stroke-linejoin="round"/>
<path id="Vector_2" d="M5.81533 2.5H19.7688C20.3856 2.5 20.9771 2.76339 21.4132 3.23223C21.8494 3.70107 22.0944 4.33696 22.0944 5V37.1875C22.0944 37.2704 22.0638 37.3499 22.0093 37.4085C21.9547 37.4671 21.8808 37.5 21.8037 37.5H3.48975V5C3.48975 4.33696 3.73476 3.70107 4.17089 3.23223C4.60702 2.76339 5.19854 2.5 5.81533 2.5V2.5Z" stroke="white" stroke-width="1.00189" stroke-linecap="round" stroke-linejoin="round"/>
<path id="Vector_3" d="M23.2565 14.9993H31.3961C32.0129 14.9993 32.6044 15.2627 33.0405 15.7315C33.4766 16.2003 33.7217 16.8362 33.7217 17.4993V37.4993H22.0938V16.2493C22.0938 15.9177 22.2163 15.5998 22.4343 15.3654C22.6524 15.131 22.9481 14.9993 23.2565 14.9993Z" stroke="white" stroke-width="1.00189" stroke-linecap="round" stroke-linejoin="round"/>
<path id="Vector_4" d="M7.14083 33.7621C6.89784 33.7962 6.651 33.7478 6.43495 33.6234C6.21891 33.4991 6.0445 33.3052 5.9362 33.0688C5.82791 32.8325 5.79117 32.5657 5.83114 32.3058C5.87111 32.0459 5.98579 31.8059 6.15907 31.6197C6.33235 31.4334 6.55554 31.3101 6.79732 31.2671C7.03909 31.2242 7.28732 31.2637 7.50715 31.3801C7.72698 31.4965 7.90738 31.684 8.02304 31.9162C8.1387 32.1485 8.1838 32.4138 8.15202 32.675C8.11849 32.9507 8.00116 33.2067 7.81829 33.4033C7.63543 33.5999 7.39726 33.726 7.14083 33.7621V33.7621Z" fill="white"/>
<path id="Vector_5" d="M7.14083 27.5116C6.89784 27.5458 6.651 27.4973 6.43495 27.3729C6.21891 27.2486 6.0445 27.0547 5.9362 26.8184C5.82791 26.582 5.79117 26.3152 5.83114 26.0553C5.87111 25.7954 5.98579 25.5554 6.15907 25.3692C6.33235 25.1829 6.55554 25.0596 6.79732 25.0166C7.03909 24.9737 7.28732 25.0132 7.50715 25.1296C7.72698 25.246 7.90738 25.4335 8.02304 25.6657C8.1387 25.898 8.1838 26.1633 8.15202 26.4246C8.11849 26.7002 8.00116 26.9562 7.81829 27.1528C7.63543 27.3494 7.39726 27.4755 7.14083 27.5116V27.5116Z" fill="white"/>
<path id="Vector_6" d="M7.14083 21.2611C6.89784 21.2953 6.651 21.2468 6.43495 21.1224C6.21891 20.9981 6.0445 20.8042 5.9362 20.5679C5.82791 20.3315 5.79117 20.0647 5.83114 19.8048C5.87111 19.5449 5.98579 19.305 6.15907 19.1187C6.33235 18.9324 6.55554 18.8091 6.79732 18.7662C7.03909 18.7232 7.28732 18.7627 7.50715 18.8791C7.72698 18.9955 7.90738 19.183 8.02304 19.4153C8.1387 19.6475 8.1838 19.9129 8.15202 20.1741C8.11849 20.4497 8.00116 20.7058 7.81829 20.9023C7.63543 21.0989 7.39726 21.2251 7.14083 21.2611V21.2611Z" fill="white"/>
<path id="Vector_7" d="M7.14083 15.0116C6.89784 15.0458 6.651 14.9973 6.43495 14.8729C6.21891 14.7486 6.0445 14.5547 5.9362 14.3184C5.82791 14.082 5.79117 13.8152 5.83114 13.5553C5.87111 13.2954 5.98579 13.0554 6.15907 12.8692C6.33235 12.6829 6.55554 12.5596 6.79732 12.5166C7.03909 12.4737 7.28732 12.5132 7.50715 12.6296C7.72698 12.746 7.90738 12.9335 8.02304 13.1657C8.1387 13.398 8.1838 13.6633 8.15202 13.9246C8.11849 14.2002 8.00116 14.4563 7.81829 14.6528C7.63543 14.8494 7.39726 14.9755 7.14083 15.0116V15.0116Z" fill="white"/>
<path id="Vector_8" d="M7.14083 8.76135C6.89784 8.79551 6.651 8.74703 6.43495 8.62269C6.21891 8.49836 6.0445 8.30443 5.9362 8.06811C5.82791 7.83179 5.79117 7.56495 5.83114 7.30504C5.87111 7.04513 5.98579 6.8052 6.15907 6.61892C6.33235 6.43264 6.55554 6.30937 6.79732 6.2664C7.03909 6.22343 7.28732 6.26293 7.50715 6.37934C7.72698 6.49576 7.90738 6.68325 8.02304 6.9155C8.1387 7.14775 8.1838 7.4131 8.15202 7.67432C8.11849 7.94998 8.00116 8.20601 7.81829 8.40259C7.63543 8.59917 7.39726 8.7253 7.14083 8.76135Z" fill="white"/>
<path id="Vector_9" d="M12.9543 27.5116C12.7113 27.5458 12.4645 27.4973 12.2484 27.3729C12.0324 27.2486 11.858 27.0547 11.7497 26.8184C11.6414 26.582 11.6046 26.3152 11.6446 26.0553C11.6846 25.7954 11.7993 25.5554 11.9725 25.3692C12.1458 25.1829 12.369 25.0596 12.6108 25.0166C12.8526 24.9737 13.1008 25.0132 13.3206 25.1296C13.5405 25.246 13.7209 25.4335 13.8365 25.6657C13.9522 25.898 13.9973 26.1633 13.9655 26.4246C13.932 26.7002 13.8146 26.9562 13.6318 27.1528C13.4489 27.3494 13.2107 27.4755 12.9543 27.5116V27.5116Z" fill="white"/>
<path id="Vector_10" d="M12.9543 21.2611C12.7113 21.2953 12.4645 21.2468 12.2484 21.1224C12.0324 20.9981 11.858 20.8042 11.7497 20.5679C11.6414 20.3315 11.6046 20.0647 11.6446 19.8048C11.6846 19.5449 11.7993 19.305 11.9725 19.1187C12.1458 18.9324 12.369 18.8091 12.6108 18.7662C12.8526 18.7232 13.1008 18.7627 13.3206 18.8791C13.5405 18.9955 13.7209 19.183 13.8365 19.4153C13.9522 19.6475 13.9973 19.9129 13.9655 20.1741C13.932 20.4497 13.8146 20.7058 13.6318 20.9023C13.4489 21.0989 13.2107 21.2251 12.9543 21.2611V21.2611Z" fill="white"/>
<path id="Vector_11" d="M12.9543 15.0116C12.7113 15.0458 12.4645 14.9973 12.2484 14.8729C12.0324 14.7486 11.858 14.5547 11.7497 14.3184C11.6414 14.082 11.6046 13.8152 11.6446 13.5553C11.6846 13.2954 11.7993 13.0554 11.9725 12.8692C12.1458 12.6829 12.369 12.5596 12.6108 12.5166C12.8526 12.4737 13.1008 12.5132 13.3206 12.6296C13.5405 12.746 13.7209 12.9335 13.8365 13.1657C13.9522 13.398 13.9973 13.6633 13.9655 13.9246C13.932 14.2002 13.8146 14.4563 13.6318 14.6528C13.4489 14.8494 13.2107 14.9755 12.9543 15.0116V15.0116Z" fill="white"/>
<path id="Vector_12" d="M12.9543 8.76135C12.7113 8.79551 12.4645 8.74703 12.2484 8.62269C12.0324 8.49836 11.858 8.30443 11.7497 8.06811C11.6414 7.83179 11.6046 7.56495 11.6446 7.30504C11.6846 7.04513 11.7993 6.8052 11.9725 6.61892C12.1458 6.43264 12.369 6.30937 12.6108 6.2664C12.8526 6.22343 13.1008 6.26293 13.3206 6.37934C13.5405 6.49576 13.7209 6.68325 13.8365 6.9155C13.9522 7.14775 13.9973 7.4131 13.9655 7.67432C13.932 7.94998 13.8146 8.20601 13.6318 8.40259C13.4489 8.59917 13.2107 8.7253 12.9543 8.76135V8.76135Z" fill="white"/>
<path id="Vector_13" d="M18.7683 33.7621C18.5253 33.7962 18.2784 33.7478 18.0624 33.6234C17.8463 33.4991 17.6719 33.3052 17.5636 33.0688C17.4554 32.8325 17.4186 32.5657 17.4586 32.3058C17.4986 32.0459 17.6132 31.8059 17.7865 31.6197C17.9598 31.4334 18.183 31.3101 18.4248 31.2671C18.6665 31.2242 18.9148 31.2637 19.1346 31.3801C19.3544 31.4965 19.5348 31.684 19.6505 31.9162C19.7661 32.1485 19.8112 32.4138 19.7795 32.675C19.7459 32.9507 19.6286 33.2067 19.4457 33.4033C19.2629 33.5999 19.0247 33.726 18.7683 33.7621V33.7621Z" fill="white"/>
<path id="Vector_14" d="M18.7683 27.5116C18.5253 27.5458 18.2784 27.4973 18.0624 27.3729C17.8463 27.2486 17.6719 27.0547 17.5636 26.8184C17.4554 26.582 17.4186 26.3152 17.4586 26.0553C17.4986 25.7954 17.6132 25.5554 17.7865 25.3692C17.9598 25.1829 18.183 25.0596 18.4248 25.0166C18.6665 24.9737 18.9148 25.0132 19.1346 25.1296C19.3544 25.246 19.5348 25.4335 19.6505 25.6657C19.7661 25.898 19.8112 26.1633 19.7795 26.4246C19.7459 26.7002 19.6286 26.9562 19.4457 27.1528C19.2629 27.3494 19.0247 27.4755 18.7683 27.5116V27.5116Z" fill="white"/>
<path id="Vector_15" d="M18.7683 21.2611C18.5253 21.2953 18.2784 21.2468 18.0624 21.1224C17.8463 20.9981 17.6719 20.8042 17.5636 20.5679C17.4554 20.3315 17.4186 20.0647 17.4586 19.8048C17.4986 19.5449 17.6132 19.305 17.7865 19.1187C17.9598 18.9324 18.183 18.8091 18.4248 18.7662C18.6665 18.7232 18.9148 18.7627 19.1346 18.8791C19.3544 18.9955 19.5348 19.183 19.6505 19.4153C19.7661 19.6475 19.8112 19.9129 19.7795 20.1741C19.7459 20.4497 19.6286 20.7058 19.4457 20.9023C19.2629 21.0989 19.0247 21.2251 18.7683 21.2611V21.2611Z" fill="white"/>
<path id="Vector_16" d="M19.4518 14.6421C19.9085 14.1511 19.9067 13.353 19.4476 12.8596C18.9886 12.3661 18.2462 12.3641 17.7894 12.8551C17.3327 13.3461 17.3345 14.1442 17.7936 14.6376C18.2526 15.1311 18.995 15.1331 19.4518 14.6421Z" fill="white"/>
<path id="Vector_17" d="M18.7683 8.76135C18.5253 8.79551 18.2784 8.74703 18.0624 8.62269C17.8463 8.49836 17.6719 8.30443 17.5636 8.06811C17.4554 7.83179 17.4186 7.56495 17.4586 7.30504C17.4986 7.04513 17.6132 6.8052 17.7865 6.61892C17.9598 6.43264 18.183 6.30937 18.4248 6.2664C18.6665 6.22343 18.9148 6.26293 19.1346 6.37934C19.3544 6.49576 19.5348 6.68325 19.6505 6.9155C19.7661 7.14775 19.8112 7.4131 19.7795 7.67432C19.7459 7.94998 19.6286 8.20601 19.4457 8.40259C19.2629 8.59917 19.0247 8.7253 18.7683 8.76135V8.76135Z" fill="white"/>
<path id="Vector_18" d="M29.0815 31.2498C28.8494 31.2498 28.6226 31.3237 28.4296 31.4623C28.2367 31.6009 28.0863 31.7979 27.9975 32.0283C27.9087 32.2588 27.8855 32.5124 27.9307 32.7571C27.976 33.0017 28.0878 33.2264 28.2518 33.4028C28.4159 33.5792 28.625 33.6993 28.8526 33.748C29.0802 33.7967 29.3161 33.7717 29.5304 33.6762C29.7448 33.5808 29.9281 33.4191 30.057 33.2117C30.1859 33.0043 30.2547 32.7605 30.2547 32.511C30.2547 32.1765 30.1311 31.8557 29.9111 31.6192C29.691 31.3826 29.3926 31.2498 29.0815 31.2498Z" fill="white"/>
<path id="Vector_19" d="M29.0815 24.999C28.8494 24.999 28.6226 25.073 28.4296 25.2116C28.2367 25.3502 28.0863 25.5471 27.9975 25.7776C27.9087 26.0081 27.8855 26.2617 27.9307 26.5063C27.976 26.751 28.0878 26.9757 28.2518 27.1521C28.4159 27.3285 28.625 27.4486 28.8526 27.4973C29.0802 27.5459 29.3161 27.521 29.5304 27.4255C29.7448 27.33 29.9281 27.1684 30.057 26.961C30.1859 26.7536 30.2547 26.5097 30.2547 26.2603C30.2547 25.9258 30.1311 25.605 29.9111 25.3684C29.691 25.1319 29.3926 24.999 29.0815 24.999Z" fill="white"/>
<path id="Vector_20" d="M29.0815 18.7485C28.8494 18.7485 28.6226 18.8225 28.4296 18.9611C28.2367 19.0997 28.0863 19.2967 27.9975 19.5271C27.9087 19.7576 27.8855 20.0112 27.9307 20.2558C27.976 20.5005 28.0878 20.7252 28.2518 20.9016C28.4159 21.078 28.625 21.1981 28.8526 21.2468C29.0802 21.2955 29.3161 21.2705 29.5304 21.175C29.7448 21.0796 29.9281 20.9179 30.057 20.7105C30.1859 20.5031 30.2547 20.2592 30.2547 20.0098C30.2547 19.6753 30.1311 19.3545 29.9111 19.1179C29.691 18.8814 29.3926 18.7485 29.0815 18.7485Z" fill="white"/>
<path id="Vector_21" d="M24.4306 31.2498C24.1985 31.2498 23.9717 31.3237 23.7788 31.4623C23.5858 31.6009 23.4354 31.7979 23.3466 32.0283C23.2578 32.2588 23.2346 32.5124 23.2799 32.7571C23.3251 33.0017 23.4369 33.2264 23.601 33.4028C23.765 33.5792 23.9741 33.6993 24.2017 33.748C24.4293 33.7967 24.6652 33.7717 24.8796 33.6762C25.0939 33.5808 25.2772 33.4191 25.4061 33.2117C25.535 33.0043 25.6038 32.7605 25.6038 32.511C25.6038 32.1765 25.4802 31.8557 25.2602 31.6192C25.0402 31.3826 24.7417 31.2498 24.4306 31.2498Z" fill="white"/>
<path id="Vector_22" d="M24.4306 24.999C24.1985 24.999 23.9717 25.073 23.7788 25.2116C23.5858 25.3502 23.4354 25.5471 23.3466 25.7776C23.2578 26.0081 23.2346 26.2617 23.2799 26.5063C23.3251 26.751 23.4369 26.9757 23.601 27.1521C23.765 27.3285 23.9741 27.4486 24.2017 27.4973C24.4293 27.5459 24.6652 27.521 24.8796 27.4255C25.0939 27.33 25.2772 27.1684 25.4061 26.961C25.535 26.7536 25.6038 26.5097 25.6038 26.2603C25.6038 25.9258 25.4802 25.605 25.2602 25.3684C25.0402 25.1319 24.7417 24.999 24.4306 24.999Z" fill="white"/>
<path id="Vector_23" d="M24.4306 18.7485C24.1985 18.7485 23.9717 18.8225 23.7788 18.9611C23.5858 19.0997 23.4354 19.2967 23.3466 19.5271C23.2578 19.7576 23.2346 20.0112 23.2799 20.2558C23.3251 20.5005 23.4369 20.7252 23.601 20.9016C23.765 21.078 23.9741 21.1981 24.2017 21.2468C24.4293 21.2955 24.6652 21.2705 24.8796 21.175C25.0939 21.0796 25.2772 20.9179 25.4061 20.7105C25.535 20.5031 25.6038 20.2592 25.6038 20.0098C25.6038 19.6753 25.4802 19.3545 25.2602 19.1179C25.0402 18.8814 24.7417 18.7485 24.4306 18.7485Z" fill="white"/>
</g>
</svg>
