<svg width="26" height="26" viewBox="0 0 26 26" fill="none" xmlns="http://www.w3.org/2000/svg">
<g id="chatbubble">
<path id="Vector" d="M4.44351 19.2961C4.50394 19.0737 4.37039 18.7645 4.24293 18.5415C4.20324 18.4751 4.16019 18.4107 4.11394 18.3486C3.02076 16.6907 2.43809 14.7485 2.43816 12.7626C2.42039 7.06243 7.14711 2.43677 12.992 2.43677C18.0895 2.43677 22.3444 5.9681 23.3387 10.6557C23.4877 11.3507 23.5629 12.0595 23.5632 12.7702C23.5632 18.4786 19.0187 23.1768 13.1738 23.1768C12.2445 23.1768 10.9902 22.9433 10.3062 22.7518C9.62218 22.5604 8.93918 22.3065 8.76297 22.2384C8.58275 22.1691 8.39135 22.1335 8.19828 22.1333C7.98739 22.1325 7.77853 22.1745 7.58433 22.2567L4.13984 23.4998C4.06438 23.5323 3.98442 23.5532 3.90269 23.5618C3.8382 23.5616 3.77438 23.5486 3.71495 23.5236C3.65551 23.4985 3.60163 23.4619 3.55643 23.4159C3.51123 23.3699 3.4756 23.3154 3.45162 23.2556C3.42764 23.1957 3.41577 23.1316 3.41671 23.0672C3.42095 23.0106 3.43116 22.9546 3.44718 22.9001L4.44351 19.2961Z" stroke="#063F5C" stroke-width="1.00189" stroke-miterlimit="10" stroke-linecap="round"/>
</g>
</svg>
