<svg width="26" height="26" viewBox="0 0 26 26" fill="none" xmlns="http://www.w3.org/2000/svg">
<g id="home">
<path id="Vector" d="M4.06134 10.7651V22.7495C4.06134 22.965 4.14694 23.1717 4.29932 23.324C4.45169 23.4764 4.65835 23.562 4.87384 23.562H9.74884V16.6558C9.74884 16.3325 9.87725 16.0225 10.1058 15.794C10.3344 15.5654 10.6444 15.437 10.9676 15.437H15.0301C15.3533 15.437 15.6633 15.5654 15.8919 15.794C16.1204 16.0225 16.2488 16.3325 16.2488 16.6558V23.562H21.1238C21.3393 23.562 21.546 23.4764 21.6984 23.324C21.8507 23.1717 21.9363 22.965 21.9363 22.7495V10.7651" stroke="#063F5C" stroke-width="1.00189" stroke-linecap="round" stroke-linejoin="round"/>
<path id="Vector_2" d="M24.3747 12.9991L13.5527 2.63974C13.2988 2.37161 12.7052 2.36857 12.4467 2.63974L1.62469 12.9991" stroke="#063F5C" stroke-width="1.00189" stroke-linecap="round" stroke-linejoin="round"/>
<path id="Vector_3" d="M20.3129 9.09149V3.24927H17.8745V6.7546" stroke="#063F5C" stroke-width="1.00189" stroke-linecap="round" stroke-linejoin="round"/>
</g>
</svg>
