<svg width="18" height="18" viewBox="0 0 18 18" fill="none" xmlns="http://www.w3.org/2000/svg">
<g id="location">
<path id="Vector" d="M8.99957 1.6875C6.20465 1.6875 3.93707 3.84574 3.93707 6.50391C3.93707 9.5625 7.31207 14.4095 8.55133 16.0836C8.60277 16.1543 8.67019 16.2118 8.74809 16.2515C8.82599 16.2911 8.91216 16.3118 8.99957 16.3118C9.08698 16.3118 9.17315 16.2911 9.25105 16.2515C9.32895 16.2118 9.39637 16.1543 9.44781 16.0836C10.6871 14.4102 14.0621 9.56496 14.0621 6.50391C14.0621 3.84574 11.7945 1.6875 8.99957 1.6875Z" stroke="#F7AD1A" stroke-opacity="0.5" stroke-width="1.00189" stroke-linecap="round" stroke-linejoin="round"/>
<path id="Vector_2" d="M9.00124 8.4401C9.93391 8.4401 10.69 7.68403 10.69 6.75136C10.69 5.8187 9.93391 5.06262 9.00124 5.06262C8.06858 5.06262 7.3125 5.8187 7.3125 6.75136C7.3125 7.68403 8.06858 8.4401 9.00124 8.4401Z" stroke="#F7AD1A" stroke-opacity="0.5" stroke-width="1.00189" stroke-linecap="round" stroke-linejoin="round"/>
</g>
</svg>
