<svg width="25" height="24" viewBox="0 0 25 24" fill="none" xmlns="http://www.w3.org/2000/svg">
<g id="people">
<path id="Vector" d="M19.6311 7.87597C19.488 9.78265 18.0146 11.2515 16.408 11.2515C14.8013 11.2515 13.3255 9.78312 13.1849 7.87597C13.0383 5.89241 14.4726 4.50049 16.408 4.50049C18.3433 4.50049 19.7776 5.9285 19.6311 7.87597Z" stroke="#063F5C" stroke-width="1.00189" stroke-linecap="round" stroke-linejoin="round"/>
<path id="Vector_2" d="M16.407 14.251C13.2248 14.251 10.1648 15.7683 9.39818 18.7233C9.29662 19.1143 9.55199 19.501 9.97045 19.501H22.844C23.2624 19.501 23.5163 19.1143 23.4162 18.7233C22.6496 15.721 19.5896 14.251 16.407 14.251Z" stroke="#063F5C" stroke-width="1.00189" stroke-miterlimit="10"/>
<path id="Vector_3" d="M9.7679 8.71778C9.65359 10.2409 8.46268 11.4404 7.17895 11.4404C5.89523 11.4404 4.70236 10.2414 4.59001 8.71778C4.47326 7.13322 5.63242 6.00073 7.17895 6.00073C8.72548 6.00073 9.88464 7.1623 9.7679 8.71778Z" stroke="#063F5C" stroke-width="1.00189" stroke-linecap="round" stroke-linejoin="round"/>
<path id="Vector_4" d="M10.0596 14.344C9.17814 13.9563 8.2073 13.8073 7.17834 13.8073C4.63892 13.8073 2.19228 15.0191 1.5794 17.3796C1.49882 17.6919 1.70295 18.0008 2.03698 18.0008H7.52019" stroke="#063F5C" stroke-width="1.00189" stroke-miterlimit="10" stroke-linecap="round"/>
</g>
</svg>
