<svg width="50" height="48" viewBox="0 0 50 48" fill="none" xmlns="http://www.w3.org/2000/svg">
<g id="people">
<path id="Vector" d="M39.2622 15.7519C38.976 19.5653 36.0293 22.5029 32.8159 22.5029C29.6026 22.5029 26.651 19.5662 26.3697 15.7519C26.0767 11.7848 28.9453 9.00098 32.8159 9.00098C36.6866 9.00098 39.5552 11.857 39.2622 15.7519Z" stroke="#063F5C" stroke-width="1.00189" stroke-linecap="round" stroke-linejoin="round"/>
<path id="Vector_2" d="M32.8141 28.502C26.4498 28.502 20.3297 31.5366 18.7965 37.4466C18.5934 38.2285 19.1041 39.002 19.941 39.002H45.6881C46.525 39.002 47.0328 38.2285 46.8326 37.4466C45.2994 31.442 39.1793 28.502 32.8141 28.502Z" stroke="#063F5C" stroke-width="1.00189" stroke-miterlimit="10"/>
<path id="Vector_3" d="M19.536 17.4356C19.3074 20.4818 16.9256 22.8809 14.3581 22.8809C11.7907 22.8809 9.40496 20.4827 9.18026 17.4356C8.94677 14.2664 11.2651 12.0015 14.3581 12.0015C17.4512 12.0015 19.7695 14.3246 19.536 17.4356Z" stroke="#063F5C" stroke-width="1.00189" stroke-linecap="round" stroke-linejoin="round"/>
<path id="Vector_4" d="M20.1191 28.6881C18.3562 27.9127 16.4145 27.6145 14.3566 27.6145C9.27771 27.6145 4.38444 30.0383 3.15868 34.7593C2.99752 35.3837 3.40578 36.0016 4.07385 36.0016H15.0403" stroke="#063F5C" stroke-width="1.00189" stroke-miterlimit="10" stroke-linecap="round"/>
</g>
</svg>
