<svg width="38" height="37" viewBox="0 0 38 37" fill="none" xmlns="http://www.w3.org/2000/svg">
<g id="warning">
<path id="Vector" d="M18.9095 14.1218L19.3239 22.9394L19.7376 14.1254C19.7401 14.069 19.7312 14.0128 19.7113 13.96C19.6914 13.9072 19.6609 13.8591 19.6218 13.8185C19.5827 13.7779 19.5357 13.7457 19.4837 13.7239C19.4317 13.7021 19.3759 13.6912 19.3195 13.6917V13.6917C19.2642 13.6923 19.2095 13.7039 19.1587 13.726C19.1079 13.748 19.0621 13.78 19.0238 13.8201C18.9856 13.8602 18.9558 13.9075 18.9362 13.9594C18.9165 14.0112 18.9074 14.0664 18.9095 14.1218V14.1218Z" stroke="#063F5C" stroke-width="1.00189" stroke-linecap="round" stroke-linejoin="round"/>
<path id="Vector_2" d="M19.3323 28.7218C19.0454 28.7218 18.7649 28.6366 18.5263 28.477C18.2878 28.3174 18.1018 28.0906 17.992 27.8252C17.8822 27.5599 17.8535 27.2679 17.9095 26.9862C17.9654 26.7044 18.1036 26.4457 18.3065 26.2426C18.5094 26.0395 18.7679 25.9011 19.0493 25.8451C19.3307 25.7891 19.6224 25.8178 19.8875 25.9277C20.1525 26.0377 20.3791 26.2238 20.5385 26.4626C20.6979 26.7015 20.783 26.9822 20.783 27.2695C20.783 27.6546 20.6302 28.024 20.3581 28.2964C20.086 28.5687 19.717 28.7218 19.3323 28.7218Z" fill="#063F5C"/>
</g>
</svg>
